<svg xmlns="http://www.w3.org/2000/svg" xmlns:xlink="http://www.w3.org/1999/xlink" viewBox="0 0 362 362"><defs><style>.cls-1,.cls-10,.cls-100,.cls-101,.cls-102,.cls-103,.cls-104,.cls-105,.cls-106,.cls-107,.cls-11,.cls-12,.cls-13,.cls-14,.cls-15,.cls-16,.cls-17,.cls-18,.cls-19,.cls-20,.cls-21,.cls-22,.cls-23,.cls-24,.cls-25,.cls-26,.cls-27,.cls-28,.cls-29,.cls-30,.cls-31,.cls-32,.cls-33,.cls-34,.cls-35,.cls-36,.cls-37,.cls-38,.cls-39,.cls-4,.cls-40,.cls-41,.cls-42,.cls-43,.cls-44,.cls-45,.cls-46,.cls-47,.cls-48,.cls-49,.cls-5,.cls-50,.cls-51,.cls-52,.cls-53,.cls-54,.cls-55,.cls-56,.cls-57,.cls-58,.cls-59,.cls-6,.cls-60,.cls-61,.cls-62,.cls-63,.cls-64,.cls-65,.cls-66,.cls-67,.cls-68,.cls-69,.cls-7,.cls-70,.cls-71,.cls-72,.cls-73,.cls-74,.cls-75,.cls-76,.cls-77,.cls-78,.cls-79,.cls-8,.cls-80,.cls-81,.cls-82,.cls-83,.cls-84,.cls-85,.cls-86,.cls-87,.cls-88,.cls-89,.cls-9,.cls-90,.cls-91,.cls-92,.cls-93,.cls-94,.cls-95,.cls-96,.cls-97,.cls-98,.cls-99{fill:none;}.cls-2{clip-path:url(#clip-path);}.cls-3{fill:#6ba09e;}.cls-4{stroke:#fff;}.cls-10,.cls-100,.cls-101,.cls-102,.cls-103,.cls-104,.cls-105,.cls-106,.cls-107,.cls-11,.cls-12,.cls-13,.cls-14,.cls-15,.cls-16,.cls-17,.cls-18,.cls-19,.cls-20,.cls-21,.cls-22,.cls-23,.cls-24,.cls-25,.cls-26,.cls-27,.cls-28,.cls-29,.cls-30,.cls-31,.cls-32,.cls-33,.cls-34,.cls-35,.cls-36,.cls-37,.cls-38,.cls-39,.cls-4,.cls-40,.cls-41,.cls-42,.cls-43,.cls-44,.cls-45,.cls-46,.cls-47,.cls-48,.cls-49,.cls-5,.cls-50,.cls-51,.cls-52,.cls-53,.cls-54,.cls-55,.cls-56,.cls-57,.cls-58,.cls-59,.cls-6,.cls-60,.cls-61,.cls-62,.cls-63,.cls-64,.cls-65,.cls-66,.cls-67,.cls-68,.cls-69,.cls-7,.cls-70,.cls-71,.cls-72,.cls-73,.cls-74,.cls-75,.cls-76,.cls-77,.cls-78,.cls-79,.cls-8,.cls-80,.cls-81,.cls-82,.cls-83,.cls-84,.cls-85,.cls-86,.cls-87,.cls-88,.cls-89,.cls-9,.cls-90,.cls-91,.cls-92,.cls-93,.cls-94,.cls-95,.cls-96,.cls-97,.cls-98,.cls-99{stroke-miterlimit:10;}.cls-10,.cls-100,.cls-101,.cls-102,.cls-103,.cls-104,.cls-105,.cls-11,.cls-12,.cls-13,.cls-14,.cls-15,.cls-16,.cls-17,.cls-18,.cls-19,.cls-20,.cls-21,.cls-22,.cls-23,.cls-24,.cls-25,.cls-26,.cls-27,.cls-28,.cls-29,.cls-30,.cls-31,.cls-32,.cls-33,.cls-34,.cls-35,.cls-36,.cls-37,.cls-38,.cls-39,.cls-40,.cls-41,.cls-42,.cls-43,.cls-44,.cls-45,.cls-46,.cls-47,.cls-48,.cls-49,.cls-5,.cls-50,.cls-51,.cls-52,.cls-53,.cls-54,.cls-55,.cls-56,.cls-57,.cls-58,.cls-59,.cls-6,.cls-60,.cls-61,.cls-62,.cls-63,.cls-64,.cls-65,.cls-66,.cls-67,.cls-68,.cls-69,.cls-7,.cls-70,.cls-71,.cls-72,.cls-73,.cls-74,.cls-75,.cls-76,.cls-77,.cls-78,.cls-79,.cls-8,.cls-80,.cls-81,.cls-82,.cls-83,.cls-84,.cls-85,.cls-86,.cls-87,.cls-88,.cls-89,.cls-9,.cls-90,.cls-91,.cls-92,.cls-93,.cls-94,.cls-95,.cls-96,.cls-97,.cls-98,.cls-99{stroke-width:0.5px;}.cls-5{stroke:url(#未命名漸層_15);}.cls-6{stroke:url(#未命名漸層_15-2);}.cls-7{stroke:url(#未命名漸層_15-3);}.cls-8{stroke:url(#未命名漸層_15-4);}.cls-9{stroke:url(#未命名漸層_15-5);}.cls-10{stroke:url(#未命名漸層_15-6);}.cls-11{stroke:url(#未命名漸層_15-7);}.cls-12{stroke:url(#未命名漸層_15-8);}.cls-13{stroke:url(#未命名漸層_15-9);}.cls-14{stroke:url(#未命名漸層_15-10);}.cls-15{stroke:url(#未命名漸層_15-11);}.cls-16{stroke:url(#未命名漸層_15-12);}.cls-17{stroke:url(#未命名漸層_15-13);}.cls-18{stroke:url(#未命名漸層_15-14);}.cls-19{stroke:url(#未命名漸層_15-15);}.cls-20{stroke:url(#未命名漸層_15-16);}.cls-21{stroke:url(#未命名漸層_15-17);}.cls-22{stroke:url(#未命名漸層_15-18);}.cls-23{stroke:url(#未命名漸層_15-19);}.cls-24{stroke:url(#未命名漸層_15-20);}.cls-25{stroke:url(#未命名漸層_15-21);}.cls-26{stroke:url(#未命名漸層_15-22);}.cls-27{stroke:url(#未命名漸層_15-23);}.cls-28{stroke:url(#未命名漸層_15-24);}.cls-29{stroke:url(#未命名漸層_15-25);}.cls-30{stroke:url(#未命名漸層_15-26);}.cls-31{stroke:url(#未命名漸層_15-27);}.cls-32{stroke:url(#未命名漸層_15-28);}.cls-33{stroke:url(#未命名漸層_15-29);}.cls-34{stroke:url(#未命名漸層_15-30);}.cls-35{stroke:url(#未命名漸層_15-31);}.cls-36{stroke:url(#未命名漸層_15-32);}.cls-37{stroke:url(#未命名漸層_15-33);}.cls-38{stroke:url(#未命名漸層_15-34);}.cls-39{stroke:url(#未命名漸層_15-35);}.cls-40{stroke:url(#未命名漸層_15-36);}.cls-41{stroke:url(#未命名漸層_15-37);}.cls-42{stroke:url(#未命名漸層_15-38);}.cls-43{stroke:url(#未命名漸層_15-39);}.cls-44{stroke:url(#未命名漸層_15-40);}.cls-45{stroke:url(#未命名漸層_15-41);}.cls-46{stroke:url(#未命名漸層_15-42);}.cls-47{stroke:url(#未命名漸層_15-43);}.cls-48{stroke:url(#未命名漸層_15-44);}.cls-49{stroke:url(#未命名漸層_15-45);}.cls-50{stroke:url(#未命名漸層_15-46);}.cls-51{stroke:url(#未命名漸層_15-47);}.cls-52{stroke:url(#未命名漸層_15-48);}.cls-53{stroke:url(#未命名漸層_15-49);}.cls-54{stroke:url(#未命名漸層_15-50);}.cls-55{stroke:url(#未命名漸層_15-51);}.cls-56{stroke:url(#未命名漸層_15-52);}.cls-57{stroke:url(#未命名漸層_15-53);}.cls-58{stroke:url(#未命名漸層_15-54);}.cls-59{stroke:url(#未命名漸層_15-55);}.cls-60{stroke:url(#未命名漸層_15-56);}.cls-61{stroke:url(#未命名漸層_15-57);}.cls-62{stroke:url(#未命名漸層_15-58);}.cls-63{stroke:url(#未命名漸層_15-59);}.cls-64{stroke:url(#未命名漸層_15-60);}.cls-65{stroke:url(#未命名漸層_15-61);}.cls-66{stroke:url(#未命名漸層_15-62);}.cls-67{stroke:url(#未命名漸層_15-63);}.cls-68{stroke:url(#未命名漸層_15-64);}.cls-69{stroke:url(#未命名漸層_15-65);}.cls-70{stroke:url(#未命名漸層_15-66);}.cls-71{stroke:url(#未命名漸層_15-67);}.cls-72{stroke:url(#未命名漸層_15-68);}.cls-73{stroke:url(#未命名漸層_15-69);}.cls-74{stroke:url(#未命名漸層_15-70);}.cls-75{stroke:url(#未命名漸層_15-71);}.cls-76{stroke:url(#未命名漸層_15-72);}.cls-77{stroke:url(#未命名漸層_15-73);}.cls-78{stroke:url(#未命名漸層_15-74);}.cls-79{stroke:url(#未命名漸層_15-75);}.cls-80{stroke:url(#未命名漸層_15-76);}.cls-81{stroke:url(#未命名漸層_15-77);}.cls-82{stroke:url(#未命名漸層_15-78);}.cls-83{stroke:url(#未命名漸層_15-79);}.cls-84{stroke:url(#未命名漸層_15-80);}.cls-85{stroke:url(#未命名漸層_15-81);}.cls-86{stroke:url(#未命名漸層_15-82);}.cls-87{stroke:url(#未命名漸層_15-83);}.cls-88{stroke:url(#未命名漸層_15-84);}.cls-89{stroke:url(#未命名漸層_15-85);}.cls-90{stroke:url(#未命名漸層_15-86);}.cls-91{stroke:url(#未命名漸層_15-87);}.cls-92{stroke:url(#未命名漸層_15-88);}.cls-93{stroke:url(#未命名漸層_15-89);}.cls-94{stroke:url(#未命名漸層_15-90);}.cls-95{stroke:url(#未命名漸層_15-91);}.cls-96{stroke:url(#未命名漸層_15-92);}.cls-97{stroke:url(#未命名漸層_15-93);}.cls-98{stroke:url(#未命名漸層_15-94);}.cls-99{stroke:url(#未命名漸層_15-95);}.cls-100{stroke:url(#未命名漸層_15-96);}.cls-101{stroke:url(#未命名漸層_15-97);}.cls-102{stroke:url(#未命名漸層_15-98);}.cls-103{stroke:url(#未命名漸層_15-99);}.cls-104{stroke:url(#未命名漸層_15-100);}.cls-105{stroke:url(#未命名漸層_15-101);}.cls-106{stroke:#1a1a1a;}.cls-106,.cls-107{stroke-width:2px;}.cls-107{stroke:#4d4d4d;}</style><clipPath id="clip-path" transform="translate(1 1)"><path class="cls-1" d="M180,0A180,180,0,1,0,360,180,180,180,0,0,0,180,0Zm0,187.5a7.5,7.5,0,1,1,7.5-7.5A7.5,7.5,0,0,1,180,187.5Z"/></clipPath><linearGradient id="未命名漸層_15" x1="29.67" y1="268.37" x2="332.33" y2="93.63" gradientUnits="userSpaceOnUse"><stop offset="0.27" stop-color="#1a1a1a"/><stop offset="0.5" stop-color="gray"/><stop offset="0.72" stop-color="#1a1a1a"/></linearGradient><linearGradient id="未命名漸層_15-2" x1="31.17" y1="267.51" x2="330.83" y2="94.49" xlink:href="#未命名漸層_15"/><linearGradient id="未命名漸層_15-3" x1="32.65" y1="266.65" x2="329.35" y2="95.35" xlink:href="#未命名漸層_15"/><linearGradient id="未命名漸層_15-4" x1="34.12" y1="265.8" x2="327.88" y2="96.2" xlink:href="#未命名漸層_15"/><linearGradient id="未命名漸層_15-5" x1="35.57" y1="264.97" x2="326.43" y2="97.03" xlink:href="#未命名漸層_15"/><linearGradient id="未命名漸層_15-6" x1="37.01" y1="264.14" x2="324.99" y2="97.86" xlink:href="#未命名漸層_15"/><linearGradient id="未命名漸層_15-7" x1="38.43" y1="263.31" x2="323.57" y2="98.69" xlink:href="#未命名漸層_15"/><linearGradient id="未命名漸層_15-8" x1="39.84" y1="262.5" x2="322.16" y2="99.5" xlink:href="#未命名漸層_15"/><linearGradient id="未命名漸層_15-9" x1="41.23" y1="261.69" x2="320.77" y2="100.31" xlink:href="#未命名漸層_15"/><linearGradient id="未命名漸層_15-10" x1="42.62" y1="260.9" x2="319.38" y2="101.1" xlink:href="#未命名漸層_15"/><linearGradient id="未命名漸層_15-11" x1="43.98" y1="260.11" x2="318.02" y2="101.89" xlink:href="#未命名漸層_15"/><linearGradient id="未命名漸層_15-12" x1="45.34" y1="259.32" x2="316.66" y2="102.68" xlink:href="#未命名漸層_15"/><linearGradient id="未命名漸層_15-13" x1="46.68" y1="258.55" x2="315.32" y2="103.45" xlink:href="#未命名漸層_15"/><linearGradient id="未命名漸層_15-14" x1="48.01" y1="257.78" x2="313.99" y2="104.22" xlink:href="#未命名漸層_15"/><linearGradient id="未命名漸層_15-15" x1="49.32" y1="257.02" x2="312.68" y2="104.98" xlink:href="#未命名漸層_15"/><linearGradient id="未命名漸層_15-16" x1="50.62" y1="256.27" x2="311.38" y2="105.73" xlink:href="#未命名漸層_15"/><linearGradient id="未命名漸層_15-17" x1="51.91" y1="255.53" x2="310.09" y2="106.47" xlink:href="#未命名漸層_15"/><linearGradient id="未命名漸層_15-18" x1="53.19" y1="254.79" x2="308.81" y2="107.21" xlink:href="#未命名漸層_15"/><linearGradient id="未命名漸層_15-19" x1="54.45" y1="254.06" x2="307.55" y2="107.94" xlink:href="#未命名漸層_15"/><linearGradient id="未命名漸層_15-20" x1="55.7" y1="253.34" x2="306.3" y2="108.66" xlink:href="#未命名漸層_15"/><linearGradient id="未命名漸層_15-21" x1="56.94" y1="252.63" x2="305.06" y2="109.37" xlink:href="#未命名漸層_15"/><linearGradient id="未命名漸層_15-22" x1="58.17" y1="251.92" x2="303.83" y2="110.08" xlink:href="#未命名漸層_15"/><linearGradient id="未命名漸層_15-23" x1="59.38" y1="251.22" x2="302.62" y2="110.78" xlink:href="#未命名漸層_15"/><linearGradient id="未命名漸層_15-24" x1="60.58" y1="250.52" x2="301.42" y2="111.48" xlink:href="#未命名漸層_15"/><linearGradient id="未命名漸層_15-25" x1="61.77" y1="249.84" x2="300.23" y2="112.16" xlink:href="#未命名漸層_15"/><linearGradient id="未命名漸層_15-26" x1="62.95" y1="249.16" x2="299.05" y2="112.84" xlink:href="#未命名漸層_15"/><linearGradient id="未命名漸層_15-27" x1="64.12" y1="248.48" x2="297.88" y2="113.52" xlink:href="#未命名漸層_15"/><linearGradient id="未命名漸層_15-28" x1="65.27" y1="247.82" x2="296.73" y2="114.18" xlink:href="#未命名漸層_15"/><linearGradient id="未命名漸層_15-29" x1="66.42" y1="247.15" x2="295.58" y2="114.85" xlink:href="#未命名漸層_15"/><linearGradient id="未命名漸層_15-30" x1="67.55" y1="246.5" x2="294.45" y2="115.5" xlink:href="#未命名漸層_15"/><linearGradient id="未命名漸層_15-31" x1="68.67" y1="245.85" x2="293.33" y2="116.15" xlink:href="#未命名漸層_15"/><linearGradient id="未命名漸層_15-32" x1="69.78" y1="245.21" x2="292.22" y2="116.79" xlink:href="#未命名漸層_15"/><linearGradient id="未命名漸層_15-33" x1="70.88" y1="244.58" x2="291.12" y2="117.42" xlink:href="#未命名漸層_15"/><linearGradient id="未命名漸層_15-34" x1="71.97" y1="243.95" x2="290.03" y2="118.05" xlink:href="#未命名漸層_15"/><linearGradient id="未命名漸層_15-35" x1="73.04" y1="243.33" x2="288.96" y2="118.67" xlink:href="#未命名漸層_15"/><linearGradient id="未命名漸層_15-36" x1="74.11" y1="242.71" x2="287.89" y2="119.29" xlink:href="#未命名漸層_15"/><linearGradient id="未命名漸層_15-37" x1="75.17" y1="242.1" x2="286.83" y2="119.9" xlink:href="#未命名漸層_15"/><linearGradient id="未命名漸層_15-38" x1="76.21" y1="241.5" x2="285.79" y2="120.5" xlink:href="#未命名漸層_15"/><linearGradient id="未命名漸層_15-39" x1="77.25" y1="240.9" x2="284.75" y2="121.1" xlink:href="#未命名漸層_15"/><linearGradient id="未命名漸層_15-40" x1="78.27" y1="240.31" x2="283.73" y2="121.69" xlink:href="#未命名漸層_15"/><linearGradient id="未命名漸層_15-41" x1="79.29" y1="239.72" x2="282.71" y2="122.28" xlink:href="#未命名漸層_15"/><linearGradient id="未命名漸層_15-42" x1="80.29" y1="239.14" x2="281.71" y2="122.86" xlink:href="#未命名漸層_15"/><linearGradient id="未命名漸層_15-43" x1="81.29" y1="238.57" x2="280.71" y2="123.43" xlink:href="#未命名漸層_15"/><linearGradient id="未命名漸層_15-44" x1="82.27" y1="238" x2="279.73" y2="124" xlink:href="#未命名漸層_15"/><linearGradient id="未命名漸層_15-45" x1="83.25" y1="237.44" x2="278.75" y2="124.56" xlink:href="#未命名漸層_15"/><linearGradient id="未命名漸層_15-46" x1="84.21" y1="236.88" x2="277.79" y2="125.12" xlink:href="#未命名漸層_15"/><linearGradient id="未命名漸層_15-47" x1="85.17" y1="236.33" x2="276.83" y2="125.67" xlink:href="#未命名漸層_15"/><linearGradient id="未命名漸層_15-48" x1="86.12" y1="235.78" x2="275.88" y2="126.22" xlink:href="#未命名漸層_15"/><linearGradient id="未命名漸層_15-49" x1="87.05" y1="235.24" x2="274.95" y2="126.76" xlink:href="#未命名漸層_15"/><linearGradient id="未命名漸層_15-50" x1="87.98" y1="234.7" x2="274.02" y2="127.3" xlink:href="#未命名漸層_15"/><linearGradient id="未命名漸層_15-51" x1="88.9" y1="234.17" x2="273.1" y2="127.83" xlink:href="#未命名漸層_15"/><linearGradient id="未命名漸層_15-52" x1="89.81" y1="233.65" x2="272.19" y2="128.35" xlink:href="#未命名漸層_15"/><linearGradient id="未命名漸層_15-53" x1="90.71" y1="233.13" x2="271.29" y2="128.87" xlink:href="#未命名漸層_15"/><linearGradient id="未命名漸層_15-54" x1="91.6" y1="232.61" x2="270.4" y2="129.39" xlink:href="#未命名漸層_15"/><linearGradient id="未命名漸層_15-55" x1="92.49" y1="232.1" x2="269.51" y2="129.9" xlink:href="#未命名漸層_15"/><linearGradient id="未命名漸層_15-56" x1="93.36" y1="231.6" x2="268.64" y2="130.4" xlink:href="#未命名漸層_15"/><linearGradient id="未命名漸層_15-57" x1="94.23" y1="231.1" x2="267.77" y2="130.9" xlink:href="#未命名漸層_15"/><linearGradient id="未命名漸層_15-58" x1="95.08" y1="230.6" x2="266.92" y2="131.4" xlink:href="#未命名漸層_15"/><linearGradient id="未命名漸層_15-59" x1="95.93" y1="230.11" x2="266.07" y2="131.89" xlink:href="#未命名漸層_15"/><linearGradient id="未命名漸層_15-60" x1="96.77" y1="229.63" x2="265.23" y2="132.37" xlink:href="#未命名漸層_15"/><linearGradient id="未命名漸層_15-61" x1="97.6" y1="229.15" x2="264.4" y2="132.85" xlink:href="#未命名漸層_15"/><linearGradient id="未命名漸層_15-62" x1="98.43" y1="228.67" x2="263.57" y2="133.33" xlink:href="#未命名漸層_15"/><linearGradient id="未命名漸層_15-63" x1="99.24" y1="228.2" x2="262.76" y2="133.8" xlink:href="#未命名漸層_15"/><linearGradient id="未命名漸層_15-64" x1="100.05" y1="227.74" x2="261.95" y2="134.26" xlink:href="#未命名漸層_15"/><linearGradient id="未命名漸層_15-65" x1="100.85" y1="227.27" x2="261.15" y2="134.73" xlink:href="#未命名漸層_15"/><linearGradient id="未命名漸層_15-66" x1="101.64" y1="226.82" x2="260.36" y2="135.18" xlink:href="#未命名漸層_15"/><linearGradient id="未命名漸層_15-67" x1="102.42" y1="226.37" x2="259.58" y2="135.63" xlink:href="#未命名漸層_15"/><linearGradient id="未命名漸層_15-68" x1="103.2" y1="225.92" x2="258.8" y2="136.08" xlink:href="#未命名漸層_15"/><linearGradient id="未命名漸層_15-69" x1="103.97" y1="225.47" x2="258.03" y2="136.53" xlink:href="#未命名漸層_15"/><linearGradient id="未命名漸層_15-70" x1="104.73" y1="225.04" x2="257.27" y2="136.96" xlink:href="#未命名漸層_15"/><linearGradient id="未命名漸層_15-71" x1="105.48" y1="224.6" x2="256.52" y2="137.4" xlink:href="#未命名漸層_15"/><linearGradient id="未命名漸層_15-72" x1="106.23" y1="224.17" x2="255.77" y2="137.83" xlink:href="#未命名漸層_15"/><linearGradient id="未命名漸層_15-73" x1="106.97" y1="223.74" x2="255.03" y2="138.26" xlink:href="#未命名漸層_15"/><linearGradient id="未命名漸層_15-74" x1="107.7" y1="223.32" x2="254.3" y2="138.68" xlink:href="#未命名漸層_15"/><linearGradient id="未命名漸層_15-75" x1="108.42" y1="222.9" x2="253.58" y2="139.1" xlink:href="#未命名漸層_15"/><linearGradient id="未命名漸層_15-76" x1="109.14" y1="222.49" x2="252.86" y2="139.51" xlink:href="#未命名漸層_15"/><linearGradient id="未命名漸層_15-77" x1="109.85" y1="222.08" x2="252.15" y2="139.92" xlink:href="#未命名漸層_15"/><linearGradient id="未命名漸層_15-78" x1="110.55" y1="221.68" x2="251.45" y2="140.32" xlink:href="#未命名漸層_15"/><linearGradient id="未命名漸層_15-79" x1="111.24" y1="221.27" x2="250.76" y2="140.73" xlink:href="#未命名漸層_15"/><linearGradient id="未命名漸層_15-80" x1="111.93" y1="220.88" x2="250.07" y2="141.12" xlink:href="#未命名漸層_15"/><linearGradient id="未命名漸層_15-81" x1="112.61" y1="220.48" x2="249.39" y2="141.52" xlink:href="#未命名漸層_15"/><linearGradient id="未命名漸層_15-82" x1="113.29" y1="220.09" x2="248.71" y2="141.91" xlink:href="#未命名漸層_15"/><linearGradient id="未命名漸層_15-83" x1="113.96" y1="219.71" x2="248.04" y2="142.29" xlink:href="#未命名漸層_15"/><linearGradient id="未命名漸層_15-84" x1="114.62" y1="219.33" x2="247.38" y2="142.67" xlink:href="#未命名漸層_15"/><linearGradient id="未命名漸層_15-85" x1="115.27" y1="218.95" x2="246.73" y2="143.05" xlink:href="#未命名漸層_15"/><linearGradient id="未命名漸層_15-86" x1="115.92" y1="218.57" x2="246.08" y2="143.43" xlink:href="#未命名漸層_15"/><linearGradient id="未命名漸層_15-87" x1="116.56" y1="218.2" x2="245.44" y2="143.8" xlink:href="#未命名漸層_15"/><linearGradient id="未命名漸層_15-88" x1="117.2" y1="217.83" x2="244.8" y2="144.17" xlink:href="#未命名漸層_15"/><linearGradient id="未命名漸層_15-89" x1="117.83" y1="217.47" x2="244.17" y2="144.53" xlink:href="#未命名漸層_15"/><linearGradient id="未命名漸層_15-90" x1="118.45" y1="217.11" x2="243.55" y2="144.89" xlink:href="#未命名漸層_15"/><linearGradient id="未命名漸層_15-91" x1="119.07" y1="216.76" x2="242.93" y2="145.24" xlink:href="#未命名漸層_15"/><linearGradient id="未命名漸層_15-92" x1="119.68" y1="216.4" x2="242.32" y2="145.6" xlink:href="#未命名漸層_15"/><linearGradient id="未命名漸層_15-93" x1="120.29" y1="216.05" x2="241.71" y2="145.95" xlink:href="#未命名漸層_15"/><linearGradient id="未命名漸層_15-94" x1="120.89" y1="215.71" x2="241.11" y2="146.29" xlink:href="#未命名漸層_15"/><linearGradient id="未命名漸層_15-95" x1="121.48" y1="215.36" x2="240.52" y2="146.64" xlink:href="#未命名漸層_15"/><linearGradient id="未命名漸層_15-96" x1="122.07" y1="215.03" x2="239.93" y2="146.97" xlink:href="#未命名漸層_15"/><linearGradient id="未命名漸層_15-97" x1="122.65" y1="214.69" x2="239.35" y2="147.31" xlink:href="#未命名漸層_15"/><linearGradient id="未命名漸層_15-98" x1="123.22" y1="214.36" x2="238.78" y2="147.64" xlink:href="#未命名漸層_15"/><linearGradient id="未命名漸層_15-99" x1="123.79" y1="214.03" x2="238.21" y2="147.97" xlink:href="#未命名漸層_15"/><linearGradient id="未命名漸層_15-100" x1="124.36" y1="213.7" x2="237.64" y2="148.3" xlink:href="#未命名漸層_15"/><linearGradient id="未命名漸層_15-101" x1="124.92" y1="213.38" x2="237.08" y2="148.62" xlink:href="#未命名漸層_15"/></defs><g id="圖層_2" data-name="圖層 2"><g id="圖層_1-2" data-name="圖層 1"><g class="cls-2"><circle cx="181" cy="181" r="180"/><circle class="cls-3" cx="181" cy="181" r="60"/><circle class="cls-4" cx="181" cy="181" r="51"/><circle class="cls-5" cx="181" cy="181" r="174.46"/><circle class="cls-6" cx="181" cy="181" r="172.73"/><circle class="cls-7" cx="181" cy="181" r="171.02"/><circle class="cls-8" cx="181" cy="181" r="169.33"/><circle class="cls-9" cx="181" cy="181" r="167.65"/><circle class="cls-10" cx="181" cy="181" r="165.99"/><circle class="cls-11" cx="181" cy="181" r="164.35"/><circle class="cls-12" cx="181" cy="181" r="162.72"/><circle class="cls-13" cx="181" cy="181" r="161.11"/><circle class="cls-14" cx="181" cy="181" r="159.52"/><circle class="cls-15" cx="181" cy="181" r="157.94"/><circle class="cls-16" cx="181" cy="181" r="156.37"/><circle class="cls-17" cx="181" cy="181" r="154.82"/><circle class="cls-18" cx="181" cy="181" r="153.29"/><circle class="cls-19" cx="181" cy="181" r="151.77"/><circle class="cls-20" cx="181" cy="181" r="150.27"/><circle class="cls-21" cx="181" cy="181" r="148.78"/><circle class="cls-22" cx="181" cy="181" r="147.31"/><circle class="cls-23" cx="181" cy="181" r="145.85"/><circle class="cls-24" cx="181" cy="181" r="144.41"/><circle class="cls-25" cx="181" cy="181" r="142.98"/><circle class="cls-26" cx="181" cy="181" r="141.56"/><circle class="cls-27" cx="181" cy="181" r="140.16"/><circle class="cls-28" cx="181" cy="181" r="138.77"/><circle class="cls-29" cx="181" cy="181" r="137.4"/><circle class="cls-30" cx="181" cy="181" r="136.04"/><circle class="cls-31" cx="181" cy="181" r="134.69"/><circle class="cls-32" cx="181" cy="181" r="133.36"/><circle class="cls-33" cx="181" cy="181" r="132.04"/><circle class="cls-34" cx="181" cy="181" r="130.73"/><circle class="cls-35" cx="181" cy="181" r="129.44"/><circle class="cls-36" cx="181" cy="181" r="128.15"/><circle class="cls-37" cx="181" cy="181" r="126.89"/><circle class="cls-38" cx="181" cy="181" r="125.63"/><circle class="cls-39" cx="181" cy="181" r="124.39"/><circle class="cls-40" cx="181" cy="181" r="123.15"/><circle class="cls-41" cx="181" cy="181" r="121.93"/><circle class="cls-42" cx="181" cy="181" r="120.73"/><circle class="cls-43" cx="181" cy="181" r="119.53"/><circle class="cls-44" cx="181" cy="181" r="118.35"/><circle class="cls-45" cx="181" cy="181" r="117.18"/><circle class="cls-46" cx="181" cy="181" r="116.02"/><circle class="cls-47" cx="181" cy="181" r="114.87"/><circle class="cls-48" cx="181" cy="181" r="113.73"/><circle class="cls-49" cx="181" cy="181" r="112.6"/><circle class="cls-50" cx="181" cy="181" r="111.49"/><circle class="cls-51" cx="181" cy="181" r="110.39"/><circle class="cls-52" cx="181" cy="181" r="109.29"/><circle class="cls-53" cx="181" cy="181" r="108.21"/><circle class="cls-54" cx="181" cy="181" r="107.14"/><circle class="cls-55" cx="181" cy="181" r="106.08"/><circle class="cls-56" cx="181" cy="181" r="105.03"/><circle class="cls-57" cx="181" cy="181" r="103.99"/><circle class="cls-58" cx="181" cy="181" r="102.96"/><circle class="cls-59" cx="181" cy="181" r="101.94"/><circle class="cls-60" cx="181" cy="181" r="100.93"/><circle class="cls-61" cx="181" cy="181" r="99.93"/><circle class="cls-62" cx="181" cy="181" r="98.94"/><circle class="cls-63" cx="181" cy="181" r="97.96"/><circle class="cls-64" cx="181" cy="181" r="96.99"/><circle class="cls-65" cx="181" cy="181" r="96.03"/><circle class="cls-66" cx="181" cy="181" r="95.08"/><circle class="cls-67" cx="181" cy="181" r="94.14"/><circle class="cls-68" cx="181" cy="181" r="93.21"/><circle class="cls-69" cx="181" cy="181" r="92.28"/><circle class="cls-70" cx="181" cy="181" r="91.37"/><circle class="cls-71" cx="181" cy="181" r="90.47"/><circle class="cls-72" cx="181" cy="181" r="89.57"/><circle class="cls-73" cx="181" cy="181" r="88.68"/><circle class="cls-74" cx="181" cy="181" r="87.81"/><circle class="cls-75" cx="181" cy="181" r="86.94"/><circle class="cls-76" cx="181" cy="181" r="86.08"/><circle class="cls-77" cx="181" cy="181" r="85.22"/><circle class="cls-78" cx="181" cy="181" r="84.38"/><circle class="cls-79" cx="181" cy="181" r="83.54"/><circle class="cls-80" cx="181" cy="181" r="82.72"/><circle class="cls-81" cx="181" cy="181" r="81.9"/><circle class="cls-82" cx="181" cy="181" r="81.09"/><circle class="cls-83" cx="181" cy="181" r="80.28"/><circle class="cls-84" cx="181" cy="181" r="79.49"/><circle class="cls-85" cx="181" cy="181" r="78.7"/><circle class="cls-86" cx="181" cy="181" r="77.92"/><circle class="cls-87" cx="181" cy="181" r="77.15"/><circle class="cls-88" cx="181" cy="181" r="76.39"/><circle class="cls-89" cx="181" cy="181" r="75.63"/><circle class="cls-90" cx="181" cy="181" r="74.88"/><circle class="cls-91" cx="181" cy="181" r="74.14"/><circle class="cls-92" cx="181" cy="181" r="73.41"/><circle class="cls-93" cx="181" cy="181" r="72.68"/><circle class="cls-94" cx="181" cy="181" r="71.96"/><circle class="cls-95" cx="181" cy="181" r="71.25"/><circle class="cls-96" cx="181" cy="181" r="70.54"/><circle class="cls-97" cx="181" cy="181" r="69.84"/><circle class="cls-98" cx="181" cy="181" r="69.15"/><circle class="cls-99" cx="181" cy="181" r="68.47"/><circle class="cls-100" cx="181" cy="181" r="67.79"/><circle class="cls-101" cx="181" cy="181" r="67.12"/><circle class="cls-102" cx="181" cy="181" r="66.45"/><circle class="cls-103" cx="181" cy="181" r="65.8"/><circle class="cls-104" cx="181" cy="181" r="65.15"/><circle class="cls-105" cx="181" cy="181" r="64.5"/><circle class="cls-106" cx="181" cy="181" r="150.39"/><circle class="cls-106" cx="181" cy="181" r="120.31"/><circle class="cls-106" cx="181" cy="181" r="96.25"/><circle class="cls-106" cx="181" cy="181" r="77"/><path class="cls-107" d="M180,0A180,180,0,1,0,360,180,180,180,0,0,0,180,0Zm0,187.5a7.5,7.5,0,1,1,7.5-7.5A7.5,7.5,0,0,1,180,187.5Z" transform="translate(1 1)"/><circle class="cls-107" cx="181" cy="181" r="7.5"/></g></g></g></svg>