<svg id="圖層_1_拷貝" data-name="圖層 1 拷貝" xmlns="http://www.w3.org/2000/svg" xmlns:xlink="http://www.w3.org/1999/xlink" viewBox="0 0 362 362"><defs><style>.cls-1,.cls-107{fill:none;}.cls-2{clip-path:url(#clip-path);}.cls-3{fill:#6ba09e;}.cls-4{fill:#fff;}.cls-5{fill:url(#未命名漸層_15);}.cls-6{fill:url(#未命名漸層_15-2);}.cls-7{fill:url(#未命名漸層_15-3);}.cls-8{fill:url(#未命名漸層_15-4);}.cls-9{fill:url(#未命名漸層_15-5);}.cls-10{fill:url(#未命名漸層_15-6);}.cls-11{fill:url(#未命名漸層_15-7);}.cls-12{fill:url(#未命名漸層_15-8);}.cls-13{fill:url(#未命名漸層_15-9);}.cls-14{fill:url(#未命名漸層_15-10);}.cls-15{fill:url(#未命名漸層_15-11);}.cls-16{fill:url(#未命名漸層_15-12);}.cls-17{fill:url(#未命名漸層_15-13);}.cls-18{fill:url(#未命名漸層_15-14);}.cls-19{fill:url(#未命名漸層_15-15);}.cls-20{fill:url(#未命名漸層_15-16);}.cls-21{fill:url(#未命名漸層_15-17);}.cls-22{fill:url(#未命名漸層_15-18);}.cls-23{fill:url(#未命名漸層_15-19);}.cls-24{fill:url(#未命名漸層_15-20);}.cls-25{fill:url(#未命名漸層_15-21);}.cls-26{fill:url(#未命名漸層_15-22);}.cls-27{fill:url(#未命名漸層_15-23);}.cls-28{fill:url(#未命名漸層_15-24);}.cls-29{fill:url(#未命名漸層_15-25);}.cls-30{fill:url(#未命名漸層_15-26);}.cls-31{fill:url(#未命名漸層_15-27);}.cls-32{fill:url(#未命名漸層_15-28);}.cls-33{fill:url(#未命名漸層_15-29);}.cls-34{fill:url(#未命名漸層_15-30);}.cls-35{fill:url(#未命名漸層_15-31);}.cls-36{fill:url(#未命名漸層_15-32);}.cls-37{fill:url(#未命名漸層_15-33);}.cls-38{fill:url(#未命名漸層_15-34);}.cls-39{fill:url(#未命名漸層_15-35);}.cls-40{fill:url(#未命名漸層_15-36);}.cls-41{fill:url(#未命名漸層_15-37);}.cls-42{fill:url(#未命名漸層_15-38);}.cls-43{fill:url(#未命名漸層_15-39);}.cls-44{fill:url(#未命名漸層_15-40);}.cls-45{fill:url(#未命名漸層_15-41);}.cls-46{fill:url(#未命名漸層_15-42);}.cls-47{fill:url(#未命名漸層_15-43);}.cls-48{fill:url(#未命名漸層_15-44);}.cls-49{fill:url(#未命名漸層_15-45);}.cls-50{fill:url(#未命名漸層_15-46);}.cls-51{fill:url(#未命名漸層_15-47);}.cls-52{fill:url(#未命名漸層_15-48);}.cls-53{fill:url(#未命名漸層_15-49);}.cls-54{fill:url(#未命名漸層_15-50);}.cls-55{fill:url(#未命名漸層_15-51);}.cls-56{fill:url(#未命名漸層_15-52);}.cls-57{fill:url(#未命名漸層_15-53);}.cls-58{fill:url(#未命名漸層_15-54);}.cls-59{fill:url(#未命名漸層_15-55);}.cls-60{fill:url(#未命名漸層_15-56);}.cls-61{fill:url(#未命名漸層_15-57);}.cls-62{fill:url(#未命名漸層_15-58);}.cls-63{fill:url(#未命名漸層_15-59);}.cls-64{fill:url(#未命名漸層_15-60);}.cls-65{fill:url(#未命名漸層_15-61);}.cls-66{fill:url(#未命名漸層_15-62);}.cls-67{fill:url(#未命名漸層_15-63);}.cls-68{fill:url(#未命名漸層_15-64);}.cls-69{fill:url(#未命名漸層_15-65);}.cls-70{fill:url(#未命名漸層_15-66);}.cls-71{fill:url(#未命名漸層_15-67);}.cls-72{fill:url(#未命名漸層_15-68);}.cls-73{fill:url(#未命名漸層_15-69);}.cls-74{fill:url(#未命名漸層_15-70);}.cls-75{fill:url(#未命名漸層_15-71);}.cls-76{fill:url(#未命名漸層_15-72);}.cls-77{fill:url(#未命名漸層_15-73);}.cls-78{fill:url(#未命名漸層_15-74);}.cls-79{fill:url(#未命名漸層_15-75);}.cls-80{fill:url(#未命名漸層_15-76);}.cls-81{fill:url(#未命名漸層_15-77);}.cls-82{fill:url(#未命名漸層_15-78);}.cls-83{fill:url(#未命名漸層_15-79);}.cls-84{fill:url(#未命名漸層_15-80);}.cls-85{fill:url(#未命名漸層_15-81);}.cls-86{fill:url(#未命名漸層_15-82);}.cls-87{fill:url(#未命名漸層_15-83);}.cls-88{fill:url(#未命名漸層_15-84);}.cls-89{fill:url(#未命名漸層_15-85);}.cls-90{fill:url(#未命名漸層_15-86);}.cls-91{fill:url(#未命名漸層_15-87);}.cls-92{fill:url(#未命名漸層_15-88);}.cls-93{fill:url(#未命名漸層_15-89);}.cls-94{fill:url(#未命名漸層_15-90);}.cls-95{fill:url(#未命名漸層_15-91);}.cls-96{fill:url(#未命名漸層_15-92);}.cls-97{fill:url(#未命名漸層_15-93);}.cls-98{fill:url(#未命名漸層_15-94);}.cls-99{fill:url(#未命名漸層_15-95);}.cls-100{fill:url(#未命名漸層_15-96);}.cls-101{fill:url(#未命名漸層_15-97);}.cls-102{fill:url(#未命名漸層_15-98);}.cls-103{fill:url(#未命名漸層_15-99);}.cls-104{fill:url(#未命名漸層_15-100);}.cls-105{fill:url(#未命名漸層_15-101);}.cls-106{fill:#1a1a1a;}.cls-107{stroke:#4d4d4d;stroke-miterlimit:10;stroke-width:2px;}.cls-108{fill:#4d4d4d;}</style><clipPath id="clip-path" transform="translate(-779.04 -358.93)"><path class="cls-1" d="M960,359.93a180,180,0,1,0,180,180A180,180,0,0,0,960,359.93Zm0,187.5a7.5,7.5,0,1,1,7.5-7.5A7.5,7.5,0,0,1,960,547.43Z"/></clipPath><linearGradient id="未命名漸層_15" x1="808.67" y1="627.33" x2="1111.41" y2="452.54" gradientUnits="userSpaceOnUse"><stop offset="0.27" stop-color="#1a1a1a"/><stop offset="0.5" stop-color="gray"/><stop offset="0.72" stop-color="#1a1a1a"/></linearGradient><linearGradient id="未命名漸層_15-2" x1="810.17" y1="626.46" x2="1109.91" y2="453.41" xlink:href="#未命名漸層_15"/><linearGradient id="未命名漸層_15-3" x1="811.65" y1="625.61" x2="1108.43" y2="454.26" xlink:href="#未命名漸層_15"/><linearGradient id="未命名漸層_15-4" x1="813.11" y1="624.76" x2="1106.96" y2="455.11" xlink:href="#未命名漸層_15"/><linearGradient id="未命名漸層_15-5" x1="814.57" y1="623.92" x2="1105.51" y2="455.95" xlink:href="#未命名漸層_15"/><linearGradient id="未命名漸層_15-6" x1="816.01" y1="623.09" x2="1104.07" y2="456.78" xlink:href="#未命名漸層_15"/><linearGradient id="未命名漸層_15-7" x1="817.43" y1="622.27" x2="1102.65" y2="457.6" xlink:href="#未命名漸層_15"/><linearGradient id="未命名漸層_15-8" x1="818.84" y1="621.46" x2="1101.24" y2="458.41" xlink:href="#未命名漸層_15"/><linearGradient id="未命名漸層_15-9" x1="820.23" y1="620.65" x2="1099.84" y2="459.22" xlink:href="#未命名漸層_15"/><linearGradient id="未命名漸層_15-10" x1="821.62" y1="619.85" x2="1098.46" y2="460.02" xlink:href="#未命名漸層_15"/><linearGradient id="未命名漸層_15-11" x1="822.99" y1="619.06" x2="1097.09" y2="460.81" xlink:href="#未命名漸層_15"/><linearGradient id="未命名漸層_15-12" x1="824.34" y1="618.28" x2="1095.74" y2="461.59" xlink:href="#未命名漸層_15"/><linearGradient id="未命名漸層_15-13" x1="825.68" y1="617.51" x2="1094.4" y2="462.36" xlink:href="#未命名漸層_15"/><linearGradient id="未命名漸層_15-14" x1="827.01" y1="616.74" x2="1093.07" y2="463.13" xlink:href="#未命名漸層_15"/><linearGradient id="未命名漸層_15-15" x1="828.33" y1="615.98" x2="1091.75" y2="463.89" xlink:href="#未命名漸層_15"/><linearGradient id="未命名漸層_15-16" x1="829.63" y1="615.23" x2="1090.45" y2="464.64" xlink:href="#未命名漸層_15"/><linearGradient id="未命名漸層_15-17" x1="830.92" y1="614.48" x2="1089.16" y2="465.39" xlink:href="#未命名漸層_15"/><linearGradient id="未命名漸層_15-18" x1="832.19" y1="613.75" x2="1087.88" y2="466.12" xlink:href="#未命名漸層_15"/><linearGradient id="未命名漸層_15-19" x1="833.46" y1="613.02" x2="1086.62" y2="466.85" xlink:href="#未命名漸層_15"/><linearGradient id="未命名漸層_15-20" x1="834.71" y1="612.29" x2="1085.37" y2="467.57" xlink:href="#未命名漸層_15"/><linearGradient id="未命名漸層_15-21" x1="835.95" y1="611.58" x2="1084.13" y2="468.29" xlink:href="#未命名漸層_15"/><linearGradient id="未命名漸層_15-22" x1="837.17" y1="610.87" x2="1082.9" y2="469" xlink:href="#未命名漸層_15"/><linearGradient id="未命名漸層_15-23" x1="838.39" y1="610.17" x2="1081.69" y2="469.7" xlink:href="#未命名漸層_15"/><linearGradient id="未命名漸層_15-24" x1="839.59" y1="609.48" x2="1080.49" y2="470.39" xlink:href="#未命名漸層_15"/><linearGradient id="未命名漸層_15-25" x1="840.78" y1="608.79" x2="1079.3" y2="471.08" xlink:href="#未命名漸層_15"/><linearGradient id="未命名漸層_15-26" x1="841.96" y1="608.11" x2="1078.12" y2="471.76" xlink:href="#未命名漸層_15"/><linearGradient id="未命名漸層_15-27" x1="843.12" y1="607.44" x2="1076.95" y2="472.43" xlink:href="#未命名漸層_15"/><linearGradient id="未命名漸層_15-28" x1="844.33" y1="606.69" x2="1075.7" y2="473.11" xlink:href="#未命名漸層_15"/><linearGradient id="未命名漸層_15-29" x1="845.5" y1="606.07" x2="1074.58" y2="473.8" xlink:href="#未命名漸層_15"/><linearGradient id="未命名漸層_15-30" x1="846.63" y1="605.41" x2="1073.45" y2="474.46" xlink:href="#未命名漸層_15"/><linearGradient id="未命名漸層_15-31" x1="847.75" y1="604.77" x2="1072.33" y2="475.1" xlink:href="#未命名漸層_15"/><linearGradient id="未命名漸層_15-32" x1="848.86" y1="604.12" x2="1071.22" y2="475.75" xlink:href="#未命名漸層_15"/><linearGradient id="未命名漸層_15-33" x1="849.96" y1="603.49" x2="1070.12" y2="476.38" xlink:href="#未命名漸層_15"/><linearGradient id="未命名漸層_15-34" x1="851.04" y1="602.86" x2="1069.03" y2="477.01" xlink:href="#未命名漸層_15"/><linearGradient id="未命名漸層_15-35" x1="852.12" y1="602.24" x2="1067.95" y2="477.63" xlink:href="#未命名漸層_15"/><linearGradient id="未命名漸層_15-36" x1="853.19" y1="601.62" x2="1066.89" y2="478.24" xlink:href="#未命名漸層_15"/><linearGradient id="未命名漸層_15-37" x1="854.24" y1="601.01" x2="1065.83" y2="478.85" xlink:href="#未命名漸層_15"/><linearGradient id="未命名漸層_15-38" x1="855.29" y1="600.41" x2="1064.79" y2="479.46" xlink:href="#未命名漸層_15"/><linearGradient id="未命名漸層_15-39" x1="856.32" y1="599.81" x2="1063.75" y2="480.06" xlink:href="#未命名漸層_15"/><linearGradient id="未命名漸層_15-40" x1="857.35" y1="599.22" x2="1062.73" y2="480.65" xlink:href="#未命名漸層_15"/><linearGradient id="未命名漸層_15-41" x1="858.36" y1="598.64" x2="1061.71" y2="481.23" xlink:href="#未命名漸層_15"/><linearGradient id="未命名漸層_15-42" x1="859.37" y1="598.06" x2="1060.71" y2="481.81" xlink:href="#未命名漸層_15"/><linearGradient id="未命名漸層_15-43" x1="860.36" y1="597.48" x2="1059.71" y2="482.39" xlink:href="#未命名漸層_15"/><linearGradient id="未命名漸層_15-44" x1="861.35" y1="596.91" x2="1058.73" y2="482.96" xlink:href="#未命名漸層_15"/><linearGradient id="未命名漸層_15-45" x1="862.32" y1="596.35" x2="1057.75" y2="483.52" xlink:href="#未命名漸層_15"/><linearGradient id="未命名漸層_15-46" x1="863.29" y1="595.79" x2="1056.79" y2="484.08" xlink:href="#未命名漸層_15"/><linearGradient id="未命名漸層_15-47" x1="864.24" y1="595.24" x2="1055.83" y2="484.63" xlink:href="#未命名漸層_15"/><linearGradient id="未命名漸層_15-48" x1="865.19" y1="594.7" x2="1054.89" y2="485.17" xlink:href="#未命名漸層_15"/><linearGradient id="未命名漸層_15-49" x1="866.13" y1="594.15" x2="1053.95" y2="485.71" xlink:href="#未命名漸層_15"/><linearGradient id="未命名漸層_15-50" x1="867.05" y1="593.62" x2="1053.02" y2="486.25" xlink:href="#未命名漸層_15"/><linearGradient id="未命名漸層_15-51" x1="867.97" y1="593.09" x2="1052.1" y2="486.78" xlink:href="#未命名漸層_15"/><linearGradient id="未命名漸層_15-52" x1="868.88" y1="592.56" x2="1051.19" y2="487.31" xlink:href="#未命名漸層_15"/><linearGradient id="未命名漸層_15-53" x1="869.78" y1="592.04" x2="1050.29" y2="487.83" xlink:href="#未命名漸層_15"/><linearGradient id="未命名漸層_15-54" x1="870.67" y1="591.53" x2="1049.4" y2="488.34" xlink:href="#未命名漸層_15"/><linearGradient id="未命名漸層_15-55" x1="871.56" y1="591.02" x2="1048.52" y2="488.85" xlink:href="#未命名漸層_15"/><linearGradient id="未命名漸層_15-56" x1="872.43" y1="590.51" x2="1047.65" y2="489.35" xlink:href="#未命名漸層_15"/><linearGradient id="未命名漸層_15-57" x1="873.3" y1="590.02" x2="1046.78" y2="489.85" xlink:href="#未命名漸層_15"/><linearGradient id="未命名漸層_15-58" x1="874.15" y1="589.52" x2="1045.92" y2="490.35" xlink:href="#未命名漸層_15"/><linearGradient id="未命名漸層_15-59" x1="875" y1="589.03" x2="1045.08" y2="490.84" xlink:href="#未命名漸層_15"/><linearGradient id="未命名漸層_15-60" x1="875.84" y1="588.55" x2="1044.24" y2="491.32" xlink:href="#未命名漸層_15"/><linearGradient id="未命名漸層_15-61" x1="876.67" y1="588.07" x2="1043.4" y2="491.8" xlink:href="#未命名漸層_15"/><linearGradient id="未命名漸層_15-62" x1="877.5" y1="587.59" x2="1042.58" y2="492.28" xlink:href="#未命名漸層_15"/><linearGradient id="未命名漸層_15-63" x1="878.31" y1="587.12" x2="1041.77" y2="492.75" xlink:href="#未命名漸層_15"/><linearGradient id="未命名漸層_15-64" x1="879.12" y1="586.65" x2="1040.96" y2="493.22" xlink:href="#未命名漸層_15"/><linearGradient id="未命名漸層_15-65" x1="879.92" y1="586.19" x2="1040.16" y2="493.68" xlink:href="#未命名漸層_15"/><linearGradient id="未命名漸層_15-66" x1="880.71" y1="585.74" x2="1039.37" y2="494.13" xlink:href="#未命名漸層_15"/><linearGradient id="未命名漸層_15-67" x1="881.49" y1="585.28" x2="1038.58" y2="494.59" xlink:href="#未命名漸層_15"/><linearGradient id="未命名漸層_15-68" x1="882.27" y1="584.84" x2="1037.81" y2="495.03" xlink:href="#未命名漸層_15"/><linearGradient id="未命名漸層_15-69" x1="883.03" y1="584.39" x2="1037.04" y2="495.48" xlink:href="#未命名漸層_15"/><linearGradient id="未命名漸層_15-70" x1="883.79" y1="583.95" x2="1036.28" y2="495.92" xlink:href="#未命名漸層_15"/><linearGradient id="未命名漸層_15-71" x1="884.55" y1="583.52" x2="1035.53" y2="496.35" xlink:href="#未命名漸層_15"/><linearGradient id="未命名漸層_15-72" x1="885.29" y1="583.09" x2="1034.78" y2="496.78" xlink:href="#未命名漸層_15"/><linearGradient id="未命名漸層_15-73" x1="886.03" y1="582.66" x2="1034.05" y2="497.21" xlink:href="#未命名漸層_15"/><linearGradient id="未命名漸層_15-74" x1="886.76" y1="582.24" x2="1033.32" y2="497.63" xlink:href="#未命名漸層_15"/><linearGradient id="未命名漸層_15-75" x1="887.48" y1="581.82" x2="1032.59" y2="498.05" xlink:href="#未命名漸層_15"/><linearGradient id="未命名漸層_15-76" x1="888.2" y1="581.41" x2="1031.88" y2="498.46" xlink:href="#未命名漸層_15"/><linearGradient id="未命名漸層_15-77" x1="888.91" y1="581" x2="1031.17" y2="498.87" xlink:href="#未命名漸層_15"/><linearGradient id="未命名漸層_15-78" x1="889.61" y1="580.6" x2="1030.46" y2="499.27" xlink:href="#未命名漸層_15"/><linearGradient id="未命名漸層_15-79" x1="890.31" y1="580.19" x2="1029.77" y2="499.68" xlink:href="#未命名漸層_15"/><linearGradient id="未命名漸層_15-80" x1="891" y1="579.8" x2="1029.08" y2="500.07" xlink:href="#未命名漸層_15"/><linearGradient id="未命名漸層_15-81" x1="891.68" y1="579.4" x2="1028.4" y2="500.47" xlink:href="#未命名漸層_15"/><linearGradient id="未命名漸層_15-82" x1="892.35" y1="579.01" x2="1027.72" y2="500.86" xlink:href="#未命名漸層_15"/><linearGradient id="未命名漸層_15-83" x1="893.02" y1="578.63" x2="1027.06" y2="501.24" xlink:href="#未命名漸層_15"/><linearGradient id="未命名漸層_15-84" x1="893.68" y1="578.25" x2="1026.4" y2="501.62" xlink:href="#未命名漸層_15"/><linearGradient id="未命名漸層_15-85" x1="894.34" y1="577.87" x2="1025.74" y2="502" xlink:href="#未命名漸層_15"/><linearGradient id="未命名漸層_15-86" x1="894.98" y1="577.49" x2="1025.09" y2="502.38" xlink:href="#未命名漸層_15"/><linearGradient id="未命名漸層_15-87" x1="895.63" y1="577.12" x2="1024.45" y2="502.75" xlink:href="#未命名漸層_15"/><linearGradient id="未命名漸層_15-88" x1="896.26" y1="576.76" x2="1023.81" y2="503.11" xlink:href="#未命名漸層_15"/><linearGradient id="未命名漸層_15-89" x1="896.89" y1="576.39" x2="1023.19" y2="503.48" xlink:href="#未命名漸層_15"/><linearGradient id="未命名漸層_15-90" x1="897.51" y1="576.03" x2="1022.56" y2="503.84" xlink:href="#未命名漸層_15"/><linearGradient id="未命名漸層_15-91" x1="898.13" y1="575.68" x2="1021.95" y2="504.19" xlink:href="#未命名漸層_15"/><linearGradient id="未命名漸層_15-92" x1="898.74" y1="575.32" x2="1021.33" y2="504.55" xlink:href="#未命名漸層_15"/><linearGradient id="未命名漸層_15-93" x1="899.35" y1="574.98" x2="1020.73" y2="504.89" xlink:href="#未命名漸層_15"/><linearGradient id="未命名漸層_15-94" x1="899.95" y1="574.63" x2="1020.13" y2="505.24" xlink:href="#未命名漸層_15"/><linearGradient id="未命名漸層_15-95" x1="900.54" y1="574.29" x2="1019.54" y2="505.58" xlink:href="#未命名漸層_15"/><linearGradient id="未命名漸層_15-96" x1="901.13" y1="573.95" x2="1018.95" y2="505.92" xlink:href="#未命名漸層_15"/><linearGradient id="未命名漸層_15-97" x1="901.71" y1="573.61" x2="1018.37" y2="506.26" xlink:href="#未命名漸層_15"/><linearGradient id="未命名漸層_15-98" x1="902.28" y1="573.28" x2="1017.79" y2="506.59" xlink:href="#未命名漸層_15"/><linearGradient id="未命名漸層_15-99" x1="902.85" y1="572.95" x2="1017.23" y2="506.92" xlink:href="#未命名漸層_15"/><linearGradient id="未命名漸層_15-100" x1="903.42" y1="572.63" x2="1016.66" y2="507.24" xlink:href="#未命名漸層_15"/><linearGradient id="未命名漸層_15-101" x1="903.97" y1="572.3" x2="1016.1" y2="507.57" xlink:href="#未命名漸層_15"/></defs><g class="cls-2"><circle cx="181" cy="181" r="180"/><circle class="cls-3" cx="181" cy="181" r="60"/><path class="cls-4" d="M960,591.43a51.5,51.5,0,1,1,51.5-51.5A51.55,51.55,0,0,1,960,591.43Zm0-102a50.5,50.5,0,1,0,50.5,50.5A50.56,50.56,0,0,0,960,489.43Z" transform="translate(-779.04 -358.93)"/><path class="cls-5" d="M960,714.65a174.72,174.72,0,1,1,123.54-51.18A173.57,173.57,0,0,1,960,714.65Zm0-348.93a174.23,174.23,0,1,0,123.18,51A173.1,173.1,0,0,0,960,365.72Z" transform="translate(-779.04 -358.93)"/><path class="cls-6" d="M960,712.92a173,173,0,1,1,122.32-50.67A171.86,171.86,0,0,1,960,712.92Zm0-345.47A172.49,172.49,0,1,0,1082,418,171.37,171.37,0,0,0,960,367.45Z" transform="translate(-779.04 -358.93)"/><path class="cls-7" d="M960,711.21A171.27,171.27,0,1,1,1081.15,661,170.16,170.16,0,0,1,960,711.21Zm0-342a170.78,170.78,0,1,0,120.75,50A169.69,169.69,0,0,0,960,369.16Z" transform="translate(-779.04 -358.93)"/><path class="cls-8" d="M960,709.51A169.57,169.57,0,1,1,1080,659.85,168.45,168.45,0,0,1,960,709.51Zm0-338.66a169.09,169.09,0,1,0,119.56,49.53A168,168,0,0,0,960,370.85Z" transform="translate(-779.04 -358.93)"/><path class="cls-9" d="M960,707.84a167.91,167.91,0,1,1,118.72-49.18A166.84,166.84,0,0,1,960,707.84Zm0-335.31a167.4,167.4,0,1,0,118.37,49A166.27,166.27,0,0,0,960,372.53Z" transform="translate(-779.04 -358.93)"/><path class="cls-10" d="M960,706.18a166.24,166.24,0,1,1,117.55-48.69A165.14,165.14,0,0,1,960,706.18Zm0-332a165.74,165.74,0,1,0,117.2,48.55A164.66,164.66,0,0,0,960,374.19Z" transform="translate(-779.04 -358.93)"/><path class="cls-11" d="M960,704.53a164.6,164.6,0,1,1,116.39-48.21A163.51,163.51,0,0,1,960,704.53Zm0-328.7a164.12,164.12,0,1,0,116,48.07A163,163,0,0,0,960,375.83Z" transform="translate(-779.04 -358.93)"/><path class="cls-12" d="M960,702.91a163,163,0,1,1,115.24-47.74A161.88,161.88,0,0,1,960,702.91Zm0-325.45a162.48,162.48,0,1,0,114.88,47.59A161.41,161.41,0,0,0,960,377.46Z" transform="translate(-779.04 -358.93)"/><path class="cls-13" d="M960,701.3A161.37,161.37,0,1,1,1074.14,654,160.31,160.31,0,0,1,960,701.3Zm0-322.23a160.88,160.88,0,1,0,113.74,47.12A159.82,159.82,0,0,0,960,379.07Z" transform="translate(-779.04 -358.93)"/><path class="cls-14" d="M960,699.7a159.75,159.75,0,1,1,113-46.79A158.72,158.72,0,0,1,960,699.7Zm0-319a159.26,159.26,0,1,0,112.62,46.65A158.19,158.19,0,0,0,960,380.67Z" transform="translate(-779.04 -358.93)"/><path class="cls-15" d="M960,698.12a158.18,158.18,0,1,1,111.85-46.33A157.14,157.14,0,0,1,960,698.12Zm0-315.87a157.67,157.67,0,1,0,111.5,46.18A156.65,156.65,0,0,0,960,382.25Z" transform="translate(-779.04 -358.93)"/><path class="cls-16" d="M960,696.56a156.63,156.63,0,1,1,110.75-45.88A155.56,155.56,0,0,1,960,696.56Zm0-312.75a156.13,156.13,0,1,0,110.39,45.73A155.11,155.11,0,0,0,960,383.81Z" transform="translate(-779.04 -358.93)"/><path class="cls-17" d="M960,695a155.07,155.07,0,1,1,109.65-45.42A154.07,154.07,0,0,1,960,695Zm0-309.65a154.56,154.56,0,1,0,109.3,45.27A153.57,153.57,0,0,0,960,385.36Z" transform="translate(-779.04 -358.93)"/><path class="cls-18" d="M960,693.48a153.55,153.55,0,1,1,108.57-45A152.51,152.51,0,0,1,960,693.48Zm0-306.59a153.06,153.06,0,1,0,108.21,44.83A152,152,0,0,0,960,386.89Z" transform="translate(-779.04 -358.93)"/><path class="cls-19" d="M960,692a152,152,0,1,1,107.5-44.53A151,151,0,0,1,960,692Zm0-303.55a151.52,151.52,0,1,0,107.14,44.38A150.53,150.53,0,0,0,960,388.41Z" transform="translate(-779.04 -358.93)"/><path class="cls-20" d="M960,690.46a150.53,150.53,0,1,1,106.43-44.09A149.54,149.54,0,0,1,960,690.46Zm0-300.55a150,150,0,1,0,106.08,43.94A149.05,149.05,0,0,0,960,389.91Z" transform="translate(-779.04 -358.93)"/><path class="cls-21" d="M960,689a149,149,0,1,1,105.38-43.65A148,148,0,0,1,960,689Zm0-297.57a148.54,148.54,0,1,0,105,43.51A147.53,147.53,0,0,0,960,391.4Z" transform="translate(-779.04 -358.93)"/><path class="cls-22" d="M960,687.5a147.56,147.56,0,1,1,104.34-43.22A146.59,146.59,0,0,1,960,687.5Zm0-294.63A147.07,147.07,0,1,0,1064,436,146.1,146.1,0,0,0,960,392.87Z" transform="translate(-779.04 -358.93)"/><path class="cls-23" d="M960,686a146.11,146.11,0,1,1,103.31-42.8A145.12,145.12,0,0,1,960,686Zm0-291.71A145.62,145.62,0,1,0,1063,437,144.67,144.67,0,0,0,960,394.33Z" transform="translate(-779.04 -358.93)"/><path class="cls-24" d="M960,684.59a144.66,144.66,0,1,1,102.29-42.37A143.68,143.68,0,0,1,960,684.59Zm0-288.81A144.17,144.17,0,1,0,1062,438,143.21,143.21,0,0,0,960,395.78Z" transform="translate(-779.04 -358.93)"/><path class="cls-25" d="M960,683.16a143.23,143.23,0,1,1,101.28-41.95A142.3,142.3,0,0,1,960,683.16Zm0-285.95A142.73,142.73,0,1,0,1061,439,141.79,141.79,0,0,0,960,397.21Z" transform="translate(-779.04 -358.93)"/><path class="cls-26" d="M960,681.75a141.83,141.83,0,1,1,100.27-41.54A140.88,140.88,0,0,1,960,681.75Zm0-283.13A141.31,141.31,0,1,0,1060,440,140.37,140.37,0,0,0,960,398.62Z" transform="translate(-779.04 -358.93)"/><path class="cls-27" d="M960,680.35a140.43,140.43,0,1,1,99.28-41.13A139.5,139.5,0,0,1,960,680.35ZM960,400A139.91,139.91,0,1,0,1059,441,139,139,0,0,0,960,400Z" transform="translate(-779.04 -358.93)"/><path class="cls-28" d="M960,679a139,139,0,1,1,98.3-40.72A138.11,138.11,0,0,1,960,679Zm0-277.55A138.51,138.51,0,1,0,1058,442,137.62,137.62,0,0,0,960,401.41Z" transform="translate(-779.04 -358.93)"/><path class="cls-29" d="M960,677.58a137.64,137.64,0,1,1,97.33-40.31A136.71,136.71,0,0,1,960,677.58Zm0-274.79A137.15,137.15,0,1,0,1057,443,136.21,136.21,0,0,0,960,402.79Z" transform="translate(-779.04 -358.93)"/><path class="cls-30" d="M960,676.22a136.28,136.28,0,1,1,96.37-39.91A135.38,135.38,0,0,1,960,676.22Zm0-272.07a135.78,135.78,0,1,0,96,39.77A134.9,134.9,0,0,0,960,404.15Z" transform="translate(-779.04 -358.93)"/><path class="cls-31" d="M960,674.88a134.95,134.95,0,1,1,95.42-39.53A134.05,134.05,0,0,1,960,674.88Zm0-269.39a134.45,134.45,0,1,0,95.06,39.38A133.6,133.6,0,0,0,960,405.49Z" transform="translate(-779.04 -358.93)"/><path class="cls-32" d="M960,673.54c-73.67,0-133.61-59.93-133.61-133.61A133.6,133.6,0,0,1,960,406.33c73.67,0,133.61,59.93,133.61,133.6S1033.71,673.54,960,673.54Zm0-266.71c-73.4,0-133.11,59.71-133.11,133.1S886.64,673,960,673s133.11-59.71,133.11-133.11S1033.43,406.83,960,406.83Z" transform="translate(-779.04 -358.93)"/><path class="cls-33" d="M960,672.22c-72.95,0-132.29-59.34-132.29-132.29S887.09,407.65,960,407.65,1092.33,467,1092.33,539.93,1033,672.22,960,672.22Zm0-264.07c-72.67,0-131.79,59.12-131.79,131.78S887.37,671.72,960,671.72s131.79-59.12,131.79-131.79S1032.71,408.15,960,408.15Z" transform="translate(-779.04 -358.93)"/><path class="cls-34" d="M960,670.92c-72.22,0-131-58.76-131-131s58.76-131,131-131,131,58.76,131,131S1032.26,670.92,960,670.92Zm0-261.47c-71.95,0-130.48,58.54-130.48,130.48S888.09,670.42,960,670.42s130.48-58.54,130.48-130.49S1032,409.45,960,409.45Z" transform="translate(-779.04 -358.93)"/><path class="cls-35" d="M960,669.62A129.84,129.84,0,0,1,830.35,539.93c0-71.5,58.18-129.68,129.69-129.68a129.83,129.83,0,0,1,129.68,129.68C1089.72,611.44,1031.55,669.62,960,669.62Zm0-258.87a129.19,129.19,0,1,0,129.18,129.18A129.33,129.33,0,0,0,960,410.75Z" transform="translate(-779.04 -358.93)"/><path class="cls-36" d="M960,668.34A128.56,128.56,0,0,1,831.63,539.93c0-70.8,57.61-128.4,128.41-128.4a128.41,128.41,0,0,1,0,256.81ZM960,412a127.91,127.91,0,1,0,127.9,127.9A128.05,128.05,0,0,0,960,412Z" transform="translate(-779.04 -358.93)"/><path class="cls-37" d="M960,667.07a127.14,127.14,0,1,1,127.13-127.14A127.28,127.28,0,0,1,960,667.07Zm0-253.77a126.64,126.64,0,1,0,126.63,126.63A126.78,126.78,0,0,0,960,413.3Z" transform="translate(-779.04 -358.93)"/><path class="cls-38" d="M960,665.81a125.88,125.88,0,1,1,125.88-125.88A126,126,0,0,1,960,665.81Zm0-251.25a125.38,125.38,0,1,0,125.38,125.37A125.51,125.51,0,0,0,960,414.56Z" transform="translate(-779.04 -358.93)"/><path class="cls-39" d="M960,664.57a124.64,124.64,0,1,1,124.63-124.64A124.78,124.78,0,0,1,960,664.57Zm0-248.77a124.14,124.14,0,1,0,124.13,124.13A124.28,124.28,0,0,0,960,415.8Z" transform="translate(-779.04 -358.93)"/><path class="cls-40" d="M960,663.34a123.41,123.41,0,1,1,123.4-123.41A123.55,123.55,0,0,1,960,663.34ZM960,417a122.91,122.91,0,1,0,122.9,122.9A123.05,123.05,0,0,0,960,417Z" transform="translate(-779.04 -358.93)"/><path class="cls-41" d="M960,662.12a122.19,122.19,0,1,1,122.18-122.19A122.33,122.33,0,0,1,960,662.12Zm0-243.87a121.69,121.69,0,1,0,121.68,121.68A121.83,121.83,0,0,0,960,418.25Z" transform="translate(-779.04 -358.93)"/><path class="cls-42" d="M960,660.91a121,121,0,1,1,121-121A121.12,121.12,0,0,1,960,660.91Zm0-241.45a120.48,120.48,0,1,0,120.48,120.47A120.61,120.61,0,0,0,960,419.46Z" transform="translate(-779.04 -358.93)"/><path class="cls-43" d="M960,659.72a119.79,119.79,0,1,1,119.78-119.79A119.92,119.92,0,0,1,960,659.72Zm0-239.07a119.29,119.29,0,1,0,119.28,119.28A119.42,119.42,0,0,0,960,420.65Z" transform="translate(-779.04 -358.93)"/><path class="cls-44" d="M960,658.53a118.6,118.6,0,1,1,118.6-118.6A118.73,118.73,0,0,1,960,658.53Zm0-236.69a118.1,118.1,0,1,0,118.1,118.09A118.23,118.23,0,0,0,960,421.84Z" transform="translate(-779.04 -358.93)"/><path class="cls-45" d="M960,657.36a117.43,117.43,0,1,1,117.42-117.43A117.56,117.56,0,0,1,960,657.36ZM960,423A116.93,116.93,0,1,0,1077,539.93,117.05,117.05,0,0,0,960,423Z" transform="translate(-779.04 -358.93)"/><path class="cls-46" d="M960,656.2A116.27,116.27,0,1,1,1076.3,539.93,116.4,116.4,0,0,1,960,656.2Zm0-232A115.77,115.77,0,1,0,1075.8,539.93,115.89,115.89,0,0,0,960,424.17Z" transform="translate(-779.04 -358.93)"/><path class="cls-47" d="M960,655.05a115.12,115.12,0,1,1,115.12-115.12A115.25,115.25,0,0,1,960,655.05Zm0-229.73a114.62,114.62,0,1,0,114.62,114.61A114.74,114.74,0,0,0,960,425.32Z" transform="translate(-779.04 -358.93)"/><path class="cls-48" d="M960,653.92a114,114,0,1,1,114-114A114.12,114.12,0,0,1,960,653.92Zm0-227.47a113.49,113.49,0,1,0,113.48,113.48A113.61,113.61,0,0,0,960,426.45Z" transform="translate(-779.04 -358.93)"/><path class="cls-49" d="M960,652.79a112.86,112.86,0,1,1,112.85-112.86A113,113,0,0,1,960,652.79Zm0-225.21a112.36,112.36,0,1,0,112.35,112.35A112.49,112.49,0,0,0,960,427.58Z" transform="translate(-779.04 -358.93)"/><path class="cls-50" d="M960,651.67a111.74,111.74,0,1,1,111.74-111.74A111.86,111.86,0,0,1,960,651.67Zm0-223a111.24,111.24,0,1,0,111.24,111.24A111.37,111.37,0,0,0,960,428.69Z" transform="translate(-779.04 -358.93)"/><path class="cls-51" d="M960,650.57a110.64,110.64,0,1,1,110.63-110.64A110.76,110.76,0,0,1,960,650.57Zm0-220.77a110.14,110.14,0,1,0,110.13,110.13A110.26,110.26,0,0,0,960,429.8Z" transform="translate(-779.04 -358.93)"/><path class="cls-52" d="M960,649.48a109.55,109.55,0,1,1,109.54-109.55A109.67,109.67,0,0,1,960,649.48Zm0-218.59a109,109,0,1,0,109,109A109.16,109.16,0,0,0,960,430.89Z" transform="translate(-779.04 -358.93)"/><path class="cls-53" d="M960,648.4A108.47,108.47,0,1,1,1068.5,539.93,108.59,108.59,0,0,1,960,648.4ZM960,432a108,108,0,1,0,108,108A108.08,108.08,0,0,0,960,432Z" transform="translate(-779.04 -358.93)"/><path class="cls-54" d="M960,647.32a107.39,107.39,0,1,1,107.39-107.39A107.51,107.51,0,0,1,960,647.32ZM960,433a106.89,106.89,0,1,0,106.89,106.89A107,107,0,0,0,960,433Z" transform="translate(-779.04 -358.93)"/><path class="cls-55" d="M960,646.26a106.33,106.33,0,1,1,106.33-106.33A106.45,106.45,0,0,1,960,646.26Zm0-212.15a105.83,105.83,0,1,0,105.83,105.82A105.94,105.94,0,0,0,960,434.11Z" transform="translate(-779.04 -358.93)"/><path class="cls-56" d="M960,645.21a105.28,105.28,0,1,1,105.28-105.28A105.39,105.39,0,0,1,960,645.21Zm0-210a104.78,104.78,0,1,0,104.78,104.77A104.89,104.89,0,0,0,960,435.16Z" transform="translate(-779.04 -358.93)"/><path class="cls-57" d="M960,644.17a104.24,104.24,0,1,1,104.24-104.24A104.36,104.36,0,0,1,960,644.17Zm0-208a103.74,103.74,0,1,0,103.74,103.73A103.85,103.85,0,0,0,960,436.2Z" transform="translate(-779.04 -358.93)"/><path class="cls-58" d="M960,643.14a103.21,103.21,0,1,1,103.21-103.21A103.33,103.33,0,0,1,960,643.14Zm0-205.91a102.71,102.71,0,1,0,102.71,102.7A102.82,102.82,0,0,0,960,437.23Z" transform="translate(-779.04 -358.93)"/><path class="cls-59" d="M960,642.12a102.19,102.19,0,1,1,102.19-102.19A102.3,102.3,0,0,1,960,642.12Zm0-203.87a101.69,101.69,0,1,0,101.69,101.68A101.8,101.8,0,0,0,960,438.25Z" transform="translate(-779.04 -358.93)"/><path class="cls-60" d="M960,641.12a101.19,101.19,0,1,1,101.18-101.19A101.3,101.3,0,0,1,960,641.12Zm0-201.87a100.69,100.69,0,1,0,100.68,100.68A100.79,100.79,0,0,0,960,439.25Z" transform="translate(-779.04 -358.93)"/><path class="cls-61" d="M960,640.12a100.19,100.19,0,1,1,100.18-100.19A100.3,100.3,0,0,1,960,640.12Zm0-199.87a99.69,99.69,0,1,0,99.68,99.68A99.79,99.79,0,0,0,960,440.25Z" transform="translate(-779.04 -358.93)"/><path class="cls-62" d="M960,639.13a99.2,99.2,0,1,1,99.19-99.2A99.3,99.3,0,0,1,960,639.13Zm0-197.89a98.7,98.7,0,1,0,98.69,98.69A98.81,98.81,0,0,0,960,441.24Z" transform="translate(-779.04 -358.93)"/><path class="cls-63" d="M960,638.15a98.22,98.22,0,1,1,98.21-98.22A98.32,98.32,0,0,1,960,638.15Zm0-195.93a97.72,97.72,0,1,0,97.71,97.71A97.82,97.82,0,0,0,960,442.22Z" transform="translate(-779.04 -358.93)"/><path class="cls-64" d="M960,637.18a97.25,97.25,0,1,1,97.24-97.25A97.36,97.36,0,0,1,960,637.18Zm0-194a96.75,96.75,0,1,0,96.74,96.74A96.85,96.85,0,0,0,960,443.19Z" transform="translate(-779.04 -358.93)"/><path class="cls-65" d="M960,636.22a96.29,96.29,0,1,1,96.28-96.29A96.4,96.4,0,0,1,960,636.22Zm0-192.07a95.79,95.79,0,1,0,95.78,95.78A95.89,95.89,0,0,0,960,444.15Z" transform="translate(-779.04 -358.93)"/><path class="cls-66" d="M960,635.27a95.34,95.34,0,1,1,95.33-95.34A95.44,95.44,0,0,1,960,635.27Zm0-190.17a94.84,94.84,0,1,0,94.83,94.83A94.94,94.94,0,0,0,960,445.1Z" transform="translate(-779.04 -358.93)"/><path class="cls-67" d="M960,634.32a94.39,94.39,0,1,1,94.39-94.39A94.49,94.49,0,0,1,960,634.32ZM960,446a93.89,93.89,0,1,0,93.89,93.89A94,94,0,0,0,960,446Z" transform="translate(-779.04 -358.93)"/><path class="cls-68" d="M960,633.39a93.46,93.46,0,1,1,93.46-93.46A93.56,93.56,0,0,1,960,633.39ZM960,447a93,93,0,1,0,93,92.95A93.06,93.06,0,0,0,960,447Z" transform="translate(-779.04 -358.93)"/><path class="cls-69" d="M960,632.47a92.54,92.54,0,1,1,92.53-92.54A92.64,92.64,0,0,1,960,632.47Zm0-184.57a92,92,0,1,0,92,92A92.14,92.14,0,0,0,960,447.9Z" transform="translate(-779.04 -358.93)"/><path class="cls-70" d="M960,631.56a91.63,91.63,0,1,1,91.62-91.63A91.73,91.73,0,0,1,960,631.56Zm0-182.75a91.13,91.13,0,1,0,91.12,91.12A91.22,91.22,0,0,0,960,448.81Z" transform="translate(-779.04 -358.93)"/><path class="cls-71" d="M960,630.65a90.72,90.72,0,1,1,90.71-90.72A90.82,90.82,0,0,1,960,630.65Zm0-180.93a90.22,90.22,0,1,0,90.21,90.21A90.32,90.32,0,0,0,960,449.72Z" transform="translate(-779.04 -358.93)"/><path class="cls-72" d="M960,629.75a89.82,89.82,0,1,1,89.82-89.82A89.92,89.92,0,0,1,960,629.75Zm0-179.14a89.32,89.32,0,1,0,89.32,89.32A89.42,89.42,0,0,0,960,450.61Z" transform="translate(-779.04 -358.93)"/><path class="cls-73" d="M960,628.87A88.94,88.94,0,1,1,1049,539.93,89,89,0,0,1,960,628.87Zm0-177.37a88.44,88.44,0,1,0,88.43,88.43A88.54,88.54,0,0,0,960,451.5Z" transform="translate(-779.04 -358.93)"/><path class="cls-74" d="M960,628a88.06,88.06,0,1,1,88-88.06A88.16,88.16,0,0,1,960,628Zm0-175.61a87.56,87.56,0,1,0,87.55,87.55A87.66,87.66,0,0,0,960,452.38Z" transform="translate(-779.04 -358.93)"/><path class="cls-75" d="M960,627.12a87.19,87.19,0,1,1,87.18-87.19A87.28,87.28,0,0,1,960,627.12Zm0-173.87a86.69,86.69,0,1,0,86.68,86.68A86.79,86.79,0,0,0,960,453.25Z" transform="translate(-779.04 -358.93)"/><path class="cls-76" d="M960,626.26a86.33,86.33,0,1,1,86.32-86.33A86.43,86.43,0,0,1,960,626.26Zm0-172.15a85.83,85.83,0,1,0,85.82,85.82A85.92,85.92,0,0,0,960,454.11Z" transform="translate(-779.04 -358.93)"/><path class="cls-77" d="M960,625.41a85.48,85.48,0,1,1,85.47-85.48A85.58,85.58,0,0,1,960,625.41ZM960,455a85,85,0,1,0,85,85A85.07,85.07,0,0,0,960,455Z" transform="translate(-779.04 -358.93)"/><path class="cls-78" d="M960,624.56a84.63,84.63,0,1,1,84.63-84.63A84.72,84.72,0,0,1,960,624.56Zm0-168.75a84.13,84.13,0,1,0,84.13,84.12A84.22,84.22,0,0,0,960,455.81Z" transform="translate(-779.04 -358.93)"/><path class="cls-79" d="M960,623.73a83.8,83.8,0,1,1,83.79-83.8A83.89,83.89,0,0,1,960,623.73Zm0-167.09a83.3,83.3,0,1,0,83.29,83.29A83.39,83.39,0,0,0,960,456.64Z" transform="translate(-779.04 -358.93)"/><path class="cls-80" d="M960,622.9a83,83,0,1,1,83-83A83.06,83.06,0,0,1,960,622.9Zm0-165.43a82.47,82.47,0,1,0,82.46,82.46A82.56,82.56,0,0,0,960,457.47Z" transform="translate(-779.04 -358.93)"/><path class="cls-81" d="M960,622.08a82.15,82.15,0,1,1,82.15-82.15A82.24,82.24,0,0,1,960,622.08Zm0-163.79a81.65,81.65,0,1,0,81.65,81.64A81.74,81.74,0,0,0,960,458.29Z" transform="translate(-779.04 -358.93)"/><path class="cls-82" d="M960,621.27a81.34,81.34,0,1,1,81.34-81.34A81.43,81.43,0,0,1,960,621.27Zm0-162.17a80.84,80.84,0,1,0,80.84,80.83A80.92,80.92,0,0,0,960,459.1Z" transform="translate(-779.04 -358.93)"/><path class="cls-83" d="M960,620.47a80.54,80.54,0,1,1,80.53-80.54A80.63,80.63,0,0,1,960,620.47Zm0-160.57a80,80,0,1,0,80,80A80.13,80.13,0,0,0,960,459.9Z" transform="translate(-779.04 -358.93)"/><path class="cls-84" d="M960,619.67a79.74,79.74,0,1,1,79.74-79.74A79.83,79.83,0,0,1,960,619.67Zm0-159a79.24,79.24,0,1,0,79.24,79.23A79.33,79.33,0,0,0,960,460.7Z" transform="translate(-779.04 -358.93)"/><path class="cls-85" d="M960,618.89a79,79,0,1,1,79-79A79,79,0,0,1,960,618.89Zm0-157.41a78.46,78.46,0,1,0,78.45,78.45A78.54,78.54,0,0,0,960,461.48Z" transform="translate(-779.04 -358.93)"/><path class="cls-86" d="M960,618.11a78.18,78.18,0,1,1,78.17-78.18A78.26,78.26,0,0,1,960,618.11Zm0-155.85a77.68,77.68,0,1,0,77.67,77.67A77.76,77.76,0,0,0,960,462.26Z" transform="translate(-779.04 -358.93)"/><path class="cls-87" d="M960,617.34a77.41,77.41,0,1,1,77.4-77.41A77.49,77.49,0,0,1,960,617.34ZM960,463a76.91,76.91,0,1,0,76.9,76.9A77,77,0,0,0,960,463Z" transform="translate(-779.04 -358.93)"/><path class="cls-88" d="M960,616.57a76.64,76.64,0,1,1,76.64-76.64A76.73,76.73,0,0,1,960,616.57Zm0-152.77a76.14,76.14,0,1,0,76.14,76.13A76.22,76.22,0,0,0,960,463.8Z" transform="translate(-779.04 -358.93)"/><path class="cls-89" d="M960,615.82a75.89,75.89,0,1,1,75.88-75.89A76,76,0,0,1,960,615.82Zm0-151.27a75.39,75.39,0,1,0,75.38,75.38A75.46,75.46,0,0,0,960,464.55Z" transform="translate(-779.04 -358.93)"/><path class="cls-90" d="M960,615.07a75.14,75.14,0,1,1,75.13-75.14A75.22,75.22,0,0,1,960,615.07Zm0-149.77a74.64,74.64,0,1,0,74.63,74.63A74.72,74.72,0,0,0,960,465.3Z" transform="translate(-779.04 -358.93)"/><path class="cls-91" d="M960,614.33a74.4,74.4,0,1,1,74.39-74.4A74.48,74.48,0,0,1,960,614.33ZM960,466a73.9,73.9,0,1,0,73.89,73.89A74,74,0,0,0,960,466Z" transform="translate(-779.04 -358.93)"/><path class="cls-92" d="M960,613.59a73.66,73.66,0,1,1,73.66-73.66A73.74,73.74,0,0,1,960,613.59Zm0-146.81a73.16,73.16,0,1,0,73.16,73.15A73.24,73.24,0,0,0,960,466.78Z" transform="translate(-779.04 -358.93)"/><path class="cls-93" d="M960,612.87A72.94,72.94,0,1,1,1033,539.93,73,73,0,0,1,960,612.87Zm0-145.37a72.44,72.44,0,1,0,72.43,72.43A72.52,72.52,0,0,0,960,467.5Z" transform="translate(-779.04 -358.93)"/><path class="cls-94" d="M960,612.15a72.22,72.22,0,1,1,72.21-72.22A72.3,72.3,0,0,1,960,612.15Zm0-143.93a71.72,71.72,0,1,0,71.71,71.71A71.79,71.79,0,0,0,960,468.22Z" transform="translate(-779.04 -358.93)"/><path class="cls-95" d="M960,611.43a71.5,71.5,0,1,1,71.5-71.5A71.57,71.57,0,0,1,960,611.43Zm0-142.49a71,71,0,1,0,71,71A71.08,71.08,0,0,0,960,468.94Z" transform="translate(-779.04 -358.93)"/><path class="cls-96" d="M960,610.73a70.8,70.8,0,1,1,70.79-70.8A70.87,70.87,0,0,1,960,610.73Zm0-141.09a70.3,70.3,0,1,0,70.29,70.29A70.37,70.37,0,0,0,960,469.64Z" transform="translate(-779.04 -358.93)"/><path class="cls-97" d="M960,610a70.1,70.1,0,1,1,70.09-70.1A70.18,70.18,0,0,1,960,610Zm0-139.69a69.6,69.6,0,1,0,69.59,69.59A69.67,69.67,0,0,0,960,470.34Z" transform="translate(-779.04 -358.93)"/><path class="cls-98" d="M960,609.34a69.41,69.41,0,1,1,69.4-69.41A69.48,69.48,0,0,1,960,609.34ZM960,471a68.91,68.91,0,1,0,68.9,68.9A69,69,0,0,0,960,471Z" transform="translate(-779.04 -358.93)"/><path class="cls-99" d="M960,608.65a68.72,68.72,0,1,1,68.72-68.72A68.79,68.79,0,0,1,960,608.65Zm0-136.93a68.22,68.22,0,1,0,68.22,68.21A68.29,68.29,0,0,0,960,471.72Z" transform="translate(-779.04 -358.93)"/><path class="cls-100" d="M960,608a68,68,0,1,1,68-68A68.11,68.11,0,0,1,960,608Zm0-135.58a67.54,67.54,0,1,0,67.54,67.54A67.62,67.62,0,0,0,960,472.39Z" transform="translate(-779.04 -358.93)"/><path class="cls-101" d="M960,607.3a67.37,67.37,0,1,1,67.37-67.37A67.44,67.44,0,0,1,960,607.3Zm0-134.23a66.87,66.87,0,1,0,66.87,66.86A66.94,66.94,0,0,0,960,473.07Z" transform="translate(-779.04 -358.93)"/><path class="cls-102" d="M960,606.64a66.71,66.71,0,1,1,66.7-66.71A66.78,66.78,0,0,1,960,606.64Zm0-132.91a66.21,66.21,0,1,0,66.2,66.2A66.28,66.28,0,0,0,960,473.73Z" transform="translate(-779.04 -358.93)"/><path class="cls-103" d="M960,606a66,66,0,1,1,66-66.05A66.12,66.12,0,0,1,960,606Zm0-131.59a65.55,65.55,0,1,0,65.54,65.54A65.62,65.62,0,0,0,960,474.39Z" transform="translate(-779.04 -358.93)"/><path class="cls-104" d="M960,605.33a65.4,65.4,0,1,1,65.39-65.4A65.48,65.48,0,0,1,960,605.33ZM960,475a64.9,64.9,0,1,0,64.89,64.89A65,65,0,0,0,960,475Z" transform="translate(-779.04 -358.93)"/><path class="cls-105" d="M960,604.68a64.75,64.75,0,1,1,64.75-64.75A64.81,64.81,0,0,1,960,604.68Zm0-129a64.25,64.25,0,1,0,64.25,64.25A64.33,64.33,0,0,0,960,475.68Z" transform="translate(-779.04 -358.93)"/><path class="cls-106" d="M960,691.33c-83.48,0-151.39-67.92-151.39-151.4S876.56,388.54,960,388.54s151.39,67.92,151.39,151.39S1043.52,691.33,960,691.33Zm0-300.79c-82.38,0-149.39,67-149.39,149.39s67,149.4,149.39,149.4,149.39-67,149.39-149.4S1042.41,390.54,960,390.54Z" transform="translate(-779.04 -358.93)"/><path class="cls-106" d="M960,661.25a121.32,121.32,0,1,1,121.31-121.32A121.45,121.45,0,0,1,960,661.25Zm0-240.63a119.32,119.32,0,1,0,119.31,119.31A119.45,119.45,0,0,0,960,420.62Z" transform="translate(-779.04 -358.93)"/><path class="cls-106" d="M960,637.18a97.25,97.25,0,1,1,97.25-97.25A97.35,97.35,0,0,1,960,637.18Zm0-192.5a95.25,95.25,0,1,0,95.25,95.25A95.36,95.36,0,0,0,960,444.68Z" transform="translate(-779.04 -358.93)"/><path class="cls-106" d="M960,617.93a78,78,0,1,1,78-78A78.09,78.09,0,0,1,960,617.93Zm0-154a76,76,0,1,0,76,76A76.09,76.09,0,0,0,960,463.93Z" transform="translate(-779.04 -358.93)"/><path class="cls-107" d="M960,359.93a180,180,0,1,0,180,180A180,180,0,0,0,960,359.93Zm0,187.5a7.5,7.5,0,1,1,7.5-7.5A7.5,7.5,0,0,1,960,547.43Z" transform="translate(-779.04 -358.93)"/><path class="cls-108" d="M960,548.43a8.5,8.5,0,1,1,8.5-8.5A8.51,8.51,0,0,1,960,548.43Zm0-15a6.5,6.5,0,1,0,6.5,6.5A6.51,6.51,0,0,0,960,533.43Z" transform="translate(-779.04 -358.93)"/></g></svg>